<?xml version="1.0" standalone="no"?>
<!DOCTYPE svg PUBLIC "-//W3C//DTD SVG 20010904//EN"
 "http://www.w3.org/TR/2001/REC-SVG-20010904/DTD/svg10.dtd">
<svg version="1.0" xmlns="http://www.w3.org/2000/svg"
 width="1920.000000pt" height="348.000000pt" viewBox="0 0 1920.000000 348.000000"
 preserveAspectRatio="xMidYMid meet">

<g transform="translate(0.000000,348.000000) scale(0.100000,-0.100000)"
fill="#1c1917" stroke="none">
<path d="M0 3130 c0 -294 2 -350 14 -350 9 0 13 8 9 23 -4 20 -3 20 7 4 9 -14
15 -16 26 -6 8 6 14 8 14 3 1 -5 11 4 24 19 21 27 24 27 40 12 9 -9 16 -12 16
-7 0 6 11 9 25 8 14 0 25 -4 25 -8 0 -5 11 -8 25 -8 13 0 28 -6 32 -14 13 -21
48 -35 72 -29 15 4 28 -1 42 -16 11 -11 27 -22 37 -23 9 0 23 -2 30 -2 8 -1
20 -10 28 -20 8 -11 14 -17 14 -13 0 4 10 -1 22 -13 30 -28 74 -25 121 7 32
22 40 24 48 12 6 -10 9 -10 9 -1 0 20 20 14 60 -18 21 -16 42 -30 48 -30 13 0
25 -47 16 -62 -4 -6 -3 -8 3 -5 6 4 17 -7 26 -24 l15 -32 18 21 c13 15 20 18
25 10 4 -7 26 -13 49 -15 22 -1 49 -7 60 -13 34 -18 56 -11 81 28 14 20 32 36
41 36 10 -1 27 14 40 32 24 36 38 43 38 20 0 -26 37 -24 72 3 74 58 95 70 119
64 13 -4 26 -10 29 -14 3 -5 22 3 42 17 37 26 84 38 94 22 3 -4 10 -5 16 -2 6
4 14 1 18 -6 6 -10 16 -7 41 10 31 23 33 23 62 7 28 -17 31 -16 70 5 23 13 43
32 46 43 6 36 36 46 46 16 8 -27 31 -20 63 17 32 39 84 50 110 24 10 -10 26
-16 36 -14 15 3 18 0 13 -17 -3 -12 -2 -21 1 -22 4 0 24 -2 45 -5 21 -3 37 0
37 6 0 5 6 10 14 10 8 0 16 7 20 15 3 8 12 15 20 15 7 0 16 6 19 14 3 8 15 14
26 13 11 0 17 -5 15 -9 -3 -5 5 -12 18 -17 20 -7 29 -3 61 32 20 23 37 36 37
29 0 -15 34 -16 61 -2 13 7 19 7 19 0 0 -22 30 -8 45 20 9 17 20 28 24 25 5
-2 12 7 16 22 6 24 8 26 16 10 6 -9 7 -23 3 -30 -6 -9 -5 -9 7 0 11 9 20 8 39
-2 21 -11 27 -11 41 1 22 20 112 26 105 7 -4 -11 -1 -11 14 -3 11 6 20 7 20 3
0 -5 21 -6 46 -4 34 2 49 -1 55 -11 11 -20 46 -16 63 8 11 14 17 16 27 7 9 -9
17 -6 35 12 19 19 30 22 63 18 26 -4 46 -1 56 7 9 7 18 10 22 7 3 -4 12 -2 19
3 8 8 16 7 26 -3 8 -9 21 -11 33 -6 11 4 30 5 42 2 16 -4 35 6 67 34 25 21 45
43 46 49 0 22 31 24 70 4 42 -22 82 -16 93 14 4 9 13 16 21 16 7 0 16 6 19 13
7 19 76 20 83 2 7 -17 40 -12 87 12 29 15 155 26 172 15 16 -10 38 -12 50 -3
13 10 53 12 59 3 4 -6 34 -7 112 -3 16 1 32 43 40 101 6 46 24 81 24 47 0 -7
11 -19 25 -25 16 -7 25 -20 25 -34 0 -21 2 -20 20 10 11 17 23 32 27 32 5 0
21 11 36 26 15 14 31 22 36 19 5 -3 13 0 17 6 5 9 11 7 20 -6 8 -10 17 -16 20
-12 4 4 13 2 21 -4 7 -6 13 -8 13 -3 0 4 6 0 13 -10 10 -14 17 -15 41 -6 25 9
32 8 48 -10 24 -26 44 -26 51 0 3 13 10 18 21 14 9 -3 16 -1 16 4 0 7 11 5 28
-4 15 -7 32 -14 39 -14 6 0 13 -6 15 -12 3 -7 18 -11 36 -10 18 1 32 -2 32 -7
0 -15 39 -19 51 -5 15 19 22 18 49 -6 13 -11 31 -20 40 -20 10 0 21 -8 24 -17
6 -14 9 -15 15 -4 12 19 61 6 61 -17 1 -16 1 -16 14 1 12 15 15 16 26 2 15
-18 40 -3 40 22 0 9 6 13 15 9 8 -3 28 0 45 5 22 8 34 8 44 0 11 -9 18 -8 29
4 18 18 22 13 31 -38 4 -21 11 -35 17 -32 5 4 12 0 15 -8 4 -10 24 -15 72 -16
37 -1 89 -4 115 -7 43 -6 50 -3 71 21 19 22 29 26 51 21 34 -9 69 -41 60 -55
-3 -6 -1 -11 4 -11 6 0 11 4 11 9 0 5 7 12 15 15 10 3 15 1 14 -7 -4 -21 20
-67 35 -67 7 0 16 -6 19 -13 3 -9 17 -12 40 -9 29 3 34 7 30 25 -4 20 -3 20 7
4 9 -14 15 -16 26 -6 8 6 14 8 14 3 1 -5 11 4 24 19 21 26 24 27 39 13 8 -9
17 -11 19 -6 5 15 77 -10 80 -28 3 -15 35 -23 96 -22 19 0 35 -6 38 -14 6 -16
62 -39 74 -31 5 3 16 -5 24 -17 9 -12 16 -19 16 -15 0 4 10 -1 22 -13 12 -11
27 -20 32 -20 6 0 26 -14 45 -30 18 -17 38 -30 43 -30 5 0 16 -7 24 -15 9 -8
24 -15 35 -15 12 0 19 -7 19 -20 0 -12 9 -31 21 -43 12 -13 19 -31 16 -44 -5
-25 11 -34 45 -26 20 6 22 5 9 -10 -11 -14 -11 -18 3 -23 22 -8 76 -62 76 -75
0 -6 5 -7 10 -4 6 4 8 11 5 16 -4 5 -1 9 4 9 6 0 11 -9 11 -20 0 -18 3 -19 23
-9 12 7 41 13 65 13 30 1 48 7 57 20 13 17 33 20 105 13 14 -1 29 -8 33 -15
11 -17 88 -7 100 13 4 8 12 13 18 10 5 -4 15 -3 22 2 24 15 39 12 34 -7 -4
-16 0 -19 22 -16 14 2 43 12 64 22 35 17 40 17 50 3 7 -9 17 -14 23 -12 6 2
14 -5 17 -16 4 -17 11 -19 46 -16 23 2 41 0 41 -5 0 -5 7 -16 16 -24 14 -15
18 -14 43 4 21 14 37 18 67 13 21 -3 45 -10 51 -16 7 -5 24 -6 37 -3 14 3 27
2 31 -4 7 -12 55 9 55 24 0 6 6 4 13 -4 7 -8 23 -17 37 -19 14 -1 28 -8 31
-13 4 -6 10 -4 16 6 8 15 11 14 21 -9 6 -14 16 -25 22 -25 5 0 10 -7 10 -16 0
-21 22 -42 39 -36 10 3 11 -2 6 -18 -6 -18 -4 -22 8 -17 8 3 18 2 23 -3 15
-14 113 -39 119 -31 2 5 19 11 36 15 18 3 47 22 66 43 27 28 45 38 77 41 22 2
52 11 66 20 28 19 70 42 76 42 2 0 4 -6 4 -14 0 -29 77 -26 95 4 3 5 10 8 15
5 12 -7 61 17 121 60 26 18 60 40 77 49 19 10 35 28 42 50 14 45 45 53 75 20
26 -28 99 -35 109 -9 3 8 12 15 20 15 8 0 17 6 19 13 4 7 8 3 12 -10 4 -12 18
-29 31 -37 21 -15 24 -14 33 2 6 9 11 11 11 5 0 -16 36 -17 45 -2 4 6 13 8 20
5 7 -2 21 4 31 15 12 13 21 16 29 9 9 -8 26 -1 59 25 25 19 52 35 60 35 7 0
23 14 36 30 13 17 31 30 41 30 10 0 20 4 23 9 3 5 15 7 25 4 13 -3 25 4 37 22
34 48 100 115 115 115 8 0 27 -11 43 -25 22 -19 32 -22 47 -14 11 5 20 7 20 4
1 -3 2 -11 3 -17 2 -14 29 -12 34 2 4 10 42 0 42 -11 0 -5 11 -2 25 7 21 14
26 14 30 2 4 -10 18 -13 45 -11 29 2 42 -2 52 -15 7 -11 26 -22 41 -26 35 -8
71 -41 62 -55 -3 -6 -1 -11 4 -11 6 0 11 4 11 9 0 5 7 12 15 15 10 3 15 1 14
-7 -4 -21 20 -67 35 -67 7 0 16 -6 19 -13 3 -9 17 -12 40 -9 29 3 34 7 30 25
-4 20 -3 20 7 4 9 -14 15 -16 26 -6 8 6 14 8 14 3 1 -5 11 4 24 19 21 27 24
27 40 12 9 -9 16 -12 16 -7 0 6 11 9 25 8 14 0 25 -4 25 -8 0 -5 11 -8 25 -8
13 0 28 -6 32 -14 13 -21 48 -35 72 -29 15 4 28 -1 42 -16 11 -11 27 -22 37
-23 9 0 23 -2 30 -2 8 -1 20 -10 28 -20 8 -11 14 -17 14 -13 0 4 10 -1 22 -13
30 -28 74 -25 121 7 32 22 40 24 48 12 6 -10 9 -10 9 -1 0 20 20 14 60 -18 21
-16 42 -30 48 -30 13 0 25 -47 16 -62 -4 -6 -3 -8 3 -5 6 4 17 -7 26 -24 l15
-32 18 21 c13 15 20 18 25 10 4 -7 26 -13 49 -15 22 -1 49 -7 60 -13 34 -18
56 -11 81 28 14 20 32 36 41 36 10 -1 27 14 40 32 24 36 38 43 38 20 0 -26 37
-24 72 3 74 58 95 70 119 64 13 -4 26 -10 29 -14 3 -5 22 3 42 17 37 26 84 38
94 22 3 -4 10 -5 16 -2 6 4 14 1 18 -6 6 -10 16 -7 41 10 31 23 33 23 62 7 28
-17 31 -16 70 5 23 13 43 32 46 43 6 36 36 46 46 16 8 -27 31 -20 63 17 32 39
84 50 110 24 10 -10 26 -16 36 -14 15 3 18 0 13 -17 -3 -12 -2 -21 1 -22 4 0
24 -2 45 -5 21 -3 37 0 37 6 0 5 6 10 14 10 8 0 16 7 20 15 3 8 12 15 20 15 7
0 16 6 19 14 6 16 47 18 44 3 -1 -5 8 -13 21 -18 17 -7 25 -4 35 11 14 24 37
26 37 4 0 -8 5 -12 10 -9 6 4 8 11 5 16 -4 5 -1 9 4 9 6 0 11 -9 11 -20 0 -18
3 -19 23 -9 12 7 41 13 65 13 30 1 48 7 57 20 13 17 33 20 105 13 14 -1 29 -8
33 -15 11 -17 88 -7 100 13 4 8 12 13 18 10 5 -4 15 -3 22 2 24 15 39 12 34
-7 -4 -16 0 -19 22 -16 14 2 43 12 64 22 35 17 40 17 50 3 7 -9 17 -14 23 -12
6 2 14 -5 17 -16 4 -17 11 -19 46 -16 23 2 41 0 41 -5 0 -5 7 -16 16 -24 14
-15 18 -14 43 4 21 14 37 18 67 13 21 -3 45 -10 51 -16 7 -5 24 -6 37 -3 14 3
27 2 31 -4 7 -12 55 9 55 24 0 6 6 4 13 -4 7 -8 23 -17 37 -19 14 -1 28 -8 31
-13 4 -6 10 -4 16 6 8 15 11 14 21 -9 6 -14 16 -25 22 -25 5 0 10 -7 10 -16 0
-21 22 -42 39 -36 10 3 11 -2 6 -18 -6 -18 -4 -22 8 -17 8 3 18 2 23 -3 15
-14 113 -39 119 -31 2 5 19 11 36 15 18 3 47 22 66 43 27 28 45 38 77 41 22 2
52 11 66 20 28 19 70 42 76 42 2 0 4 -6 4 -14 0 -29 77 -26 95 4 3 5 10 8 15
5 12 -7 61 17 121 60 26 18 60 40 77 49 19 10 35 28 42 50 14 45 45 53 75 20
26 -28 99 -35 109 -9 3 8 12 15 20 15 8 0 17 6 19 13 4 7 8 3 12 -10 4 -12 18
-29 31 -37 21 -15 24 -14 33 2 6 9 11 11 11 5 0 -16 36 -17 45 -2 4 6 13 8 20
5 7 -2 21 4 31 15 12 13 21 16 29 9 9 -8 26 -1 59 25 25 19 52 35 60 35 7 0
23 14 36 30 13 17 31 30 40 30 9 0 20 3 24 7 4 4 17 8 29 8 12 0 30 13 42 30
25 37 60 43 69 13 3 -12 8 -19 12 -15 4 4 14 -1 23 -11 26 -28 92 -55 104 -43
17 17 64 13 71 -5 3 -9 13 -14 21 -11 8 4 16 -2 20 -14 4 -10 12 -19 20 -19 7
0 16 -15 19 -34 8 -43 36 -55 146 -60 25 -1 50 -5 57 -9 6 -4 14 -3 18 3 9 14
62 3 93 -20 22 -17 33 -18 61 -10 35 10 55 5 46 -11 -4 -5 0 -12 8 -15 8 -3
17 -14 20 -25 6 -21 46 -26 65 -7 9 9 13 7 19 -8 3 -10 15 -25 25 -32 10 -7
18 -22 18 -34 0 -17 2 -18 15 -8 10 8 15 9 15 2 0 -6 6 -9 14 -6 8 3 17 -2 20
-13 4 -13 17 -20 44 -21 20 -2 41 -7 46 -12 5 -5 21 -6 36 -3 16 3 41 -2 60
-12 26 -14 34 -14 41 -4 6 10 12 10 27 -5 12 -10 23 -13 26 -8 9 16 67 7 81
-11 6 -9 15 -14 18 -11 3 3 19 0 35 -8 25 -13 31 -13 52 1 15 10 21 11 16 3
-4 -7 -1 -15 9 -18 21 -8 75 -63 75 -75 0 -6 5 -7 10 -4 6 4 8 11 5 16 -4 5
-1 9 4 9 6 0 11 -9 11 -20 0 -18 3 -19 23 -9 12 7 41 13 65 13 30 1 48 7 57
20 13 17 33 20 105 13 14 -1 29 -8 33 -15 11 -17 88 -7 100 13 4 8 12 13 18
10 5 -4 15 -3 22 2 24 15 39 12 34 -7 -4 -16 0 -19 22 -16 14 2 43 12 64 22
35 17 40 17 50 3 7 -9 17 -14 23 -12 6 2 14 -5 17 -16 4 -17 11 -19 46 -16 23
2 41 0 41 -5 0 -5 7 -16 16 -24 14 -15 18 -14 43 4 21 14 37 18 67 13 21 -3
45 -10 51 -16 7 -5 24 -6 37 -3 14 3 27 2 31 -4 7 -12 55 9 55 24 0 6 6 4 13
-4 7 -8 23 -17 37 -19 14 -1 28 -8 31 -13 4 -6 10 -4 16 6 8 15 11 14 21 -9 6
-14 16 -25 22 -25 5 0 10 -7 10 -16 0 -21 22 -42 39 -36 10 3 11 -2 6 -18 -6
-18 -4 -22 8 -17 8 3 18 2 23 -3 15 -14 113 -39 119 -31 2 5 19 11 36 15 18 3
47 22 66 43 27 28 45 38 77 41 22 2 52 11 66 20 28 19 70 42 76 42 2 0 4 -6 4
-14 0 -29 77 -26 95 4 3 5 10 8 15 5 12 -7 61 17 121 60 26 18 60 40 77 49 19
10 35 28 42 50 14 45 45 53 75 20 17 -18 33 -24 64 -24 l41 0 0 380 0 380
-9600 0 -9600 0 0 -350z"/>
</g>
</svg>
