<?xml version="1.0" standalone="no"?>
<!DOCTYPE svg PUBLIC "-//W3C//DTD SVG 20010904//EN"
 "http://www.w3.org/TR/2001/REC-SVG-20010904/DTD/svg10.dtd">
<svg version="1.0" xmlns="http://www.w3.org/2000/svg"
 width="1920.000000pt" height="108.000000pt" viewBox="0 0 1920.000000 108.000000"
 preserveAspectRatio="xMidYMid meet">

<g transform="translate(0.000000,108.000000) scale(0.100000,-0.100000)"
fill="#ffffff" stroke="none">
<path d="M0 743 c0 -201 4 -344 10 -353 8 -13 10 -12 10 4 0 16 3 17 12 8 17
-17 22 -15 57 14 17 14 36 22 42 18 6 -3 28 -7 49 -8 23 -1 54 -13 77 -29 22
-15 52 -27 67 -27 15 0 39 -9 53 -20 14 -11 34 -20 44 -20 11 0 38 -13 61 -30
48 -35 89 -38 134 -11 17 10 44 19 60 19 30 0 124 -54 124 -71 0 -15 43 -97
51 -97 3 0 12 7 19 15 8 9 17 12 24 7 6 -5 44 -15 85 -22 l74 -14 29 37 c17
20 36 37 43 37 8 0 25 15 40 32 23 30 26 31 36 15 13 -23 40 -15 98 30 51 39
82 49 107 35 14 -8 31 -4 67 15 45 22 54 24 93 14 37 -10 48 -9 70 6 22 14 31
15 60 4 30 -11 39 -10 67 6 18 11 38 31 45 46 14 30 37 35 46 12 8 -22 24 -18
62 15 19 16 45 32 59 36 30 8 104 -25 105 -46 0 -11 11 -17 36 -18 27 -2 47 5
84 33 53 39 62 41 80 20 17 -21 24 -19 65 17 32 27 44 31 93 31 53 0 59 3 89
35 18 20 33 41 33 46 1 6 6 1 13 -12 7 -12 16 -20 19 -17 4 4 16 2 27 -4 16
-9 28 -8 50 4 33 16 87 20 95 6 3 -5 29 -7 58 -5 34 3 60 -1 75 -11 29 -19 47
-19 63 0 7 9 20 15 29 13 9 -1 27 5 41 15 13 9 40 17 60 17 19 0 53 5 75 10
21 5 44 5 50 1 5 -4 32 -6 58 -3 41 3 55 11 99 54 l52 51 45 -17 c26 -9 49
-16 52 -16 3 0 26 16 50 35 46 36 85 44 118 23 15 -9 31 -7 78 11 55 20 72 22
210 17 178 -6 205 -1 215 40 4 16 12 48 18 70 l10 42 30 -26 c17 -15 30 -31
30 -37 0 -6 23 10 50 36 66 62 81 65 158 26 19 -10 44 -14 60 -11 19 4 32 0
41 -10 15 -18 51 -22 51 -6 0 31 82 27 121 -6 8 -8 27 -14 42 -14 14 0 29 -5
32 -10 8 -13 45 -13 45 0 0 13 37 13 45 0 11 -17 78 -43 108 -41 17 2 29 -3
33 -13 5 -13 9 -14 20 -5 11 9 17 9 28 0 11 -10 17 -8 29 9 12 17 27 22 73 23
33 2 64 6 71 10 14 9 18 2 27 -38 4 -17 15 -36 25 -42 11 -7 70 -15 133 -19
107 -6 114 -5 132 15 11 11 29 21 40 21 27 0 66 -27 66 -46 0 -16 16 -19 25
-4 11 17 25 11 25 -11 0 -26 58 -79 88 -79 14 0 26 8 31 22 5 14 10 17 15 10
11 -18 21 -15 55 14 24 20 35 23 45 15 7 -6 16 -8 19 -5 10 10 52 -4 77 -26
15 -13 37 -20 65 -20 28 0 52 -8 75 -25 19 -14 42 -25 53 -25 11 0 36 -13 56
-29 20 -15 47 -34 61 -41 14 -7 37 -23 52 -36 15 -12 45 -30 65 -39 28 -13 44
-30 61 -64 12 -25 22 -54 22 -63 0 -13 8 -18 25 -18 14 0 25 -4 25 -10 0 -5
20 -30 45 -54 25 -25 45 -41 45 -36 0 6 5 10 10 10 6 0 10 -7 10 -16 0 -11 5
-14 18 -9 9 4 37 10 62 15 25 4 60 15 78 25 27 14 39 15 80 5 88 -21 101 -22
131 -7 51 26 91 31 91 13 0 -22 33 -20 79 4 34 17 41 18 51 5 7 -8 18 -15 25
-15 7 0 15 -7 19 -15 3 -10 19 -15 42 -15 24 0 41 -7 53 -21 16 -20 17 -20 54
-3 32 15 44 16 85 7 90 -22 117 -24 137 -9 16 11 24 11 59 -5 25 -11 45 -14
51 -9 12 10 44 -26 58 -63 4 -11 16 -21 26 -24 11 -3 17 -11 15 -18 -3 -7 5
-15 18 -18 13 -2 44 -13 71 -23 39 -15 51 -16 67 -6 11 6 25 12 33 12 7 0 33
17 59 39 30 25 62 41 88 45 23 4 58 18 78 31 43 29 58 31 66 9 13 -33 116 5
242 87 65 42 95 69 107 94 19 40 38 44 74 15 33 -26 88 -26 121 0 l25 20 27
-31 c17 -21 31 -30 39 -25 7 5 33 9 57 11 25 2 53 9 62 18 9 8 22 13 28 10 11
-4 89 45 183 112 19 14 44 25 56 25 14 0 41 23 79 65 31 36 65 65 75 65 10 0
30 -9 45 -21 16 -12 33 -18 45 -14 12 3 21 0 24 -10 5 -12 11 -13 31 -3 20 8
29 8 41 -2 12 -10 18 -10 30 0 12 10 19 10 27 2 7 -7 29 -12 49 -12 21 0 40
-4 43 -9 3 -5 27 -18 52 -30 25 -12 48 -31 51 -42 6 -21 18 -25 28 -9 11 17
25 11 25 -11 0 -26 58 -79 88 -79 14 0 26 8 31 22 5 14 10 17 15 10 11 -18 21
-15 55 14 17 14 36 22 42 18 6 -3 28 -7 49 -8 23 -1 54 -13 77 -29 22 -15 52
-27 67 -27 15 0 39 -9 53 -20 14 -11 34 -20 44 -20 11 0 38 -13 61 -30 48 -35
89 -38 134 -11 17 10 44 19 60 19 30 0 124 -54 124 -71 0 -15 43 -97 51 -97 3
0 12 7 19 15 8 9 17 12 24 7 6 -5 44 -15 85 -22 l74 -14 29 37 c17 20 36 37
43 37 8 0 25 15 40 33 23 29 26 30 36 14 13 -23 40 -15 98 30 51 39 82 49 107
35 14 -8 31 -4 67 15 45 22 54 24 93 14 37 -10 48 -9 70 6 22 14 31 15 60 4
30 -11 39 -10 67 6 18 11 38 31 45 46 14 30 37 35 46 12 8 -22 24 -18 62 15
19 16 45 32 59 36 30 8 104 -25 105 -46 0 -11 11 -17 36 -18 27 -2 47 5 84 33
46 34 80 45 80 26 0 -20 34 -21 56 0 21 20 23 20 33 2 6 -10 11 -12 11 -5 0
18 20 15 20 -4 0 -11 5 -14 18 -9 9 4 37 10 62 15 25 4 60 15 78 25 27 14 39
15 80 5 88 -21 101 -22 131 -7 51 26 91 31 91 13 0 -22 33 -20 79 4 34 17 41
18 51 5 7 -8 18 -15 25 -15 7 0 15 -7 19 -15 3 -10 19 -15 42 -15 24 0 41 -7
53 -21 16 -20 17 -20 54 -3 32 15 44 16 85 7 90 -22 117 -24 137 -9 16 11 24
11 59 -5 25 -11 45 -14 51 -9 12 10 44 -26 58 -63 4 -11 16 -21 26 -24 11 -3
18 -10 15 -16 -2 -7 24 -21 64 -34 61 -21 71 -21 107 -9 22 8 57 29 79 46 22
19 58 37 85 43 25 5 62 20 81 33 41 28 56 30 64 8 13 -33 116 5 242 87 65 42
95 69 107 94 19 40 38 44 74 15 33 -26 88 -26 121 0 l25 20 27 -31 c17 -21 31
-30 39 -25 7 5 33 9 57 11 25 2 53 9 62 18 9 8 22 12 29 10 12 -4 107 54 160
99 18 15 48 30 67 33 19 4 47 20 62 36 34 36 45 36 81 3 50 -46 100 -67 135
-55 24 9 36 7 61 -7 43 -25 76 -59 83 -88 3 -13 15 -29 25 -34 22 -12 183 -30
209 -23 11 3 39 -5 64 -17 32 -15 54 -19 79 -15 32 6 36 4 57 -30 21 -33 26
-37 56 -32 28 5 36 1 58 -28 14 -19 26 -37 26 -42 0 -4 12 -9 27 -10 15 0 32
-7 37 -15 13 -16 90 -34 226 -54 19 -3 52 -5 74 -4 21 0 45 -5 53 -12 27 -22
85 -38 104 -27 14 7 28 -1 68 -40 28 -27 51 -45 51 -40 0 5 5 9 10 9 6 0 10
-7 10 -16 0 -11 5 -14 18 -9 9 4 37 10 62 15 25 4 60 15 78 25 27 14 39 15 80
5 88 -21 101 -22 131 -7 51 26 91 31 91 13 0 -22 33 -20 79 4 34 17 41 18 51
5 7 -8 18 -15 25 -15 7 0 15 -7 19 -15 3 -10 19 -15 42 -15 24 0 41 -7 53 -21
16 -20 17 -20 54 -3 32 15 44 16 85 7 90 -22 117 -24 137 -9 16 11 24 11 59
-5 25 -11 45 -14 51 -9 12 10 44 -26 58 -63 4 -11 16 -21 26 -24 11 -3 17 -11
15 -18 -3 -7 5 -15 18 -18 13 -2 44 -13 71 -23 39 -15 51 -16 67 -6 11 6 25
12 33 12 7 0 33 17 59 39 30 25 62 41 88 45 23 4 58 18 78 31 43 29 58 31 66
9 13 -33 116 5 242 87 65 42 95 69 107 94 19 40 45 45 72 15 13 -14 31 -20 62
-20 l43 0 0 380 0 380 -9600 0 -9600 0 0 -337z"/>
</g>
</svg>
